<svg xmlns="http://www.w3.org/2000/svg" xmlns:xlink="http://www.w3.org/1999/xlink" width="150" zoomAndPan="magnify" viewBox="0 0 112.5 112.499997" height="150" preserveAspectRatio="xMidYMid meet" version="1.0"><defs><clipPath id="7274f036cd"><path d="M 19.957031 19.957031 L 92.707031 19.957031 L 92.707031 92.707031 L 19.957031 92.707031 Z M 19.957031 19.957031 " clip-rule="nonzero"/></clipPath></defs><g clip-path="url(#7274f036cd)"><path fill="#000000" d="M 92.707031 56.328125 L 91.433594 55.269531 L 85.757812 55.269531 L 88.335938 52.695312 L 86.699219 51.332031 L 82.761719 55.273438 L 79.875 55.273438 L 84.988281 50.160156 L 83.488281 48.664062 L 76.882812 55.269531 L 73.996094 55.269531 L 79.109375 50.160156 L 77.609375 48.660156 L 71.003906 55.265625 L 64.292969 55.265625 L 64.292969 53.695312 L 70.71875 54.546875 L 75.011719 48.550781 L 67.703125 47.585938 L 64.007812 52.742188 L 62.710938 51.445312 L 67.453125 46.703125 L 76.796875 46.703125 L 76.796875 44.582031 L 69.570312 44.582031 L 71.613281 42.542969 L 80.957031 42.542969 L 80.957031 40.425781 L 73.730469 40.425781 L 75.773438 38.382812 L 81.339844 38.382812 L 81.535156 36.265625 L 77.890625 36.265625 L 81.902344 32.253906 L 82.054688 30.605469 L 80.402344 30.753906 L 76.390625 34.769531 L 76.390625 31.125 L 74.273438 31.320312 L 74.273438 36.886719 L 72.234375 38.925781 L 72.234375 31.699219 L 70.113281 31.699219 L 70.113281 41.042969 L 68.074219 43.085938 L 68.074219 35.859375 L 65.957031 35.859375 L 65.957031 45.203125 L 63.914062 47.242188 L 61.796875 49.363281 L 61.214844 49.945312 L 59.988281 48.71875 L 65.101562 44.972656 L 64.054688 37.675781 L 58.109375 42.03125 L 59.011719 48.34375 L 57.390625 48.34375 L 57.390625 41.660156 L 63.996094 35.050781 L 62.5 33.554688 L 57.386719 38.664062 L 57.386719 35.78125 L 63.996094 29.171875 L 62.496094 27.675781 L 57.386719 32.785156 L 57.386719 29.898438 L 61.324219 25.957031 L 59.964844 24.324219 L 57.386719 26.902344 L 57.386719 21.230469 L 56.328125 19.957031 L 55.269531 21.230469 L 55.269531 26.902344 L 52.695312 24.328125 L 51.332031 25.960938 L 55.273438 29.898438 L 55.273438 32.785156 L 50.160156 27.671875 L 48.664062 29.171875 L 55.269531 35.777344 L 55.269531 38.664062 L 50.160156 33.550781 L 48.660156 35.050781 L 55.265625 41.65625 L 55.265625 48.34375 L 53.664062 48.34375 L 54.519531 42.027344 L 48.539062 37.714844 L 47.550781 45.019531 L 52.640625 48.691406 L 51.410156 49.921875 L 50.855469 49.363281 L 48.738281 47.246094 L 46.695312 45.207031 L 46.695312 35.859375 L 44.578125 35.859375 L 44.578125 43.089844 L 42.539062 41.046875 L 42.539062 31.707031 L 40.417969 31.707031 L 40.417969 38.933594 L 38.378906 36.890625 L 38.378906 31.324219 L 36.261719 31.128906 L 36.261719 34.773438 L 32.261719 30.761719 L 30.613281 30.609375 L 30.761719 32.257812 L 34.777344 36.269531 L 31.132812 36.269531 L 31.324219 38.390625 L 36.894531 38.390625 L 38.933594 40.429688 L 31.707031 40.429688 L 31.707031 42.546875 L 41.050781 42.546875 L 43.09375 44.589844 L 35.867188 44.589844 L 35.867188 46.707031 L 45.210938 46.707031 L 47.25 48.746094 L 49.371094 50.863281 L 49.925781 51.421875 L 48.640625 52.707031 L 44.9375 47.617188 L 37.632812 48.632812 L 41.96875 54.597656 L 48.316406 53.707031 L 48.316406 55.273438 L 41.660156 55.273438 L 35.054688 48.664062 L 33.554688 50.164062 L 38.667969 55.273438 L 35.78125 55.273438 L 29.171875 48.667969 L 27.675781 50.164062 L 32.785156 55.277344 L 29.898438 55.277344 L 25.960938 51.339844 L 24.328125 52.699219 L 26.902344 55.273438 L 21.230469 55.273438 L 19.957031 56.332031 L 21.230469 57.394531 L 26.902344 57.394531 L 24.328125 59.96875 L 25.960938 61.328125 L 29.898438 57.390625 L 32.785156 57.390625 L 27.675781 62.5 L 29.171875 64 L 35.78125 57.394531 L 38.664062 57.394531 L 33.554688 62.503906 L 35.050781 64.003906 L 41.660156 57.394531 L 48.316406 57.394531 L 48.316406 59.140625 L 41.957031 58.21875 L 37.601562 64.164062 L 44.894531 65.214844 L 48.703125 60.023438 L 49.921875 61.242188 L 45.207031 65.957031 L 35.863281 65.957031 L 35.863281 68.074219 L 43.089844 68.074219 L 41.050781 70.113281 L 31.707031 70.113281 L 31.707031 72.234375 L 38.933594 72.234375 L 36.890625 74.273438 L 31.324219 74.273438 L 31.128906 76.390625 L 34.773438 76.390625 L 30.761719 80.402344 L 30.609375 82.054688 L 32.257812 81.902344 L 36.273438 77.886719 L 36.273438 81.53125 L 38.390625 81.335938 L 38.390625 75.769531 L 40.433594 73.726562 L 40.433594 80.953125 L 42.550781 80.953125 L 42.550781 71.609375 L 44.589844 69.570312 L 44.589844 76.796875 L 46.707031 76.796875 L 46.707031 67.453125 L 51.421875 62.738281 L 52.757812 64.070312 L 47.46875 67.855469 L 48.425781 75.164062 L 54.421875 70.878906 L 53.558594 64.316406 L 55.273438 64.316406 L 55.273438 71.003906 L 48.664062 77.609375 L 50.164062 79.109375 L 55.273438 73.996094 L 55.273438 76.882812 L 48.667969 83.488281 L 50.164062 84.988281 L 55.277344 79.875 L 55.277344 82.761719 L 51.339844 86.699219 L 52.699219 88.335938 L 55.273438 85.757812 L 55.273438 91.433594 L 56.332031 92.707031 L 57.394531 91.433594 L 57.394531 85.757812 L 59.96875 88.335938 L 61.328125 86.699219 L 57.390625 82.761719 L 57.390625 79.875 L 62.5 84.988281 L 64 83.488281 L 57.394531 76.882812 L 57.394531 73.996094 L 62.503906 79.109375 L 64.003906 77.609375 L 57.394531 71.003906 L 57.394531 64.320312 L 58.984375 64.320312 L 58.15625 70.917969 L 64.179688 75.167969 L 65.09375 67.851562 L 59.8125 64.125 L 61.222656 62.714844 L 61.804688 63.300781 L 65.964844 67.460938 L 65.964844 76.804688 L 68.082031 76.804688 L 68.082031 69.578125 L 70.121094 71.617188 L 70.121094 80.960938 L 72.238281 80.960938 L 72.238281 73.734375 L 74.28125 75.777344 L 74.28125 81.34375 L 76.398438 81.539062 L 76.398438 77.894531 L 80.410156 81.90625 L 82.0625 82.058594 L 81.910156 80.410156 L 77.890625 76.386719 L 81.535156 76.386719 L 81.339844 74.269531 L 75.773438 74.269531 L 73.730469 72.230469 L 80.957031 72.230469 L 80.957031 70.113281 L 71.613281 70.113281 L 69.570312 68.070312 L 76.796875 68.070312 L 76.796875 65.953125 L 67.453125 65.953125 L 65.414062 63.914062 L 63.296875 61.792969 L 62.710938 61.210938 L 63.851562 60.070312 L 67.683594 65.230469 L 74.96875 64.136719 L 70.574219 58.21875 L 64.285156 59.164062 L 64.285156 57.390625 L 71 57.390625 L 77.605469 63.996094 L 79.101562 62.5 L 73.996094 57.390625 L 76.882812 57.390625 L 83.488281 63.996094 L 84.988281 62.5 L 79.875 57.386719 L 82.761719 57.386719 L 86.699219 61.324219 L 88.335938 59.964844 L 85.757812 57.390625 L 91.433594 57.390625 Z M 42.777344 52.695312 L 40.804688 49.980469 L 44.128906 49.515625 L 46.101562 52.230469 Z M 44.097656 63.308594 L 40.777344 62.828125 L 42.761719 60.121094 L 46.082031 60.597656 Z M 62.722656 40.851562 L 63.199219 44.171875 L 60.492188 46.15625 L 60.015625 42.835938 Z M 52.179688 46.171875 L 49.457031 44.210938 L 49.90625 40.882812 L 52.628906 42.84375 Z M 49.796875 72.007812 L 49.359375 68.679688 L 52.089844 66.730469 L 52.527344 70.054688 Z M 60.457031 66.75 L 63.199219 68.6875 L 62.78125 72.015625 L 60.039062 70.078125 Z M 61.710938 58.570312 L 58.542969 61.738281 L 54.0625 61.738281 L 50.898438 58.570312 L 50.898438 54.089844 L 54.066406 50.925781 L 58.546875 50.925781 L 61.710938 54.089844 Z M 68.523438 49.484375 L 71.851562 49.925781 L 69.898438 52.65625 L 66.570312 52.214844 Z M 69.792969 60.128906 L 71.792969 62.824219 L 68.476562 63.324219 L 66.472656 60.628906 Z M 56.304688 53.5625 L 58.421875 51.21875 L 58.261719 54.375 L 61.414062 54.210938 L 59.070312 56.328125 L 61.414062 58.449219 L 58.261719 58.285156 L 58.421875 61.441406 L 56.304688 59.09375 L 54.1875 61.441406 L 54.347656 58.285156 L 51.191406 58.449219 L 53.539062 56.328125 L 51.191406 54.210938 L 54.347656 54.375 L 54.1875 51.21875 Z M 56.304688 53.5625 " fill-opacity="1" fill-rule="nonzero"/></g></svg>